<svg xmlns="http://www.w3.org/2000/svg" width="1200" height="630" viewBox="0 0 1200 630" role="img" aria-labelledby="title desc">
  <title id="title">FixMate Dubai - About</title>
  <desc id="desc">Open graph image for FixMate Dubai about page.</desc>
  <defs>
    <linearGradient id="bg" x1="0%" y1="0%" x2="100%" y2="100%">
      <stop offset="0%" stop-color="#0B66FF" />
      <stop offset="100%" stop-color="#FF7A18" />
    </linearGradient>
    <linearGradient id="glow" x1="0%" y1="0%" x2="100%" y2="0%">
      <stop offset="0%" stop-color="#ffffff" stop-opacity="0.22" />
      <stop offset="100%" stop-color="#ffffff" stop-opacity="0" />
    </linearGradient>
  </defs>
  <rect width="1200" height="630" fill="url(#bg)" />
  <circle cx="210" cy="130" r="190" fill="url(#glow)" opacity="0.34" />
  <circle cx="960" cy="520" r="230" fill="url(#glow)" opacity="0.32" />
  <rect x="70" y="70" width="1060" height="490" rx="32" ry="32" fill="#ffffff" opacity="0.05" stroke="#ffffff" stroke-opacity="0.12" />
  <g fill="#ffffff">
    <text x="100" y="150" font-family="Inter, Arial, sans-serif" font-size="28" font-weight="700" letter-spacing="0.04em">
      FixMate Dubai
    </text>
    <text x="100" y="230" font-family="Inter, Arial, sans-serif" font-size="60" font-weight="800">
      About Our Team
    </text>
    <text x="100" y="295" font-family="Inter, Arial, sans-serif" font-size="30" font-weight="600" opacity="0.94">
      Certified technicians. Safety-first. Always reliable.
    </text>
  </g>
  <g fill="#ffffff" opacity="0.9">
    <rect x="100" y="350" width="280" height="12" rx="6" />
    <rect x="400" y="350" width="160" height="12" rx="6" />
    <rect x="600" y="350" width="140" height="12" rx="6" />
    <rect x="100" y="380" width="220" height="12" rx="6" />
    <rect x="360" y="380" width="200" height="12" rx="6" />
  </g>
  <rect x="900" y="460" width="210" height="70" rx="16" ry="16" fill="#ffffff" opacity="0.18" />
  <text x="925" y="505" font-family="Inter, Arial, sans-serif" font-size="26" font-weight="700" fill="#ffffff">
    Meet FixMate
  </text>
</svg>
